<?xml version="1.0" encoding="UTF-8"?>
<svg viewBox="0 0 1200 800" xmlns="http://www.w3.org/2000/svg">
  <defs>
    <pattern id="grid" width="40" height="40" patternUnits="userSpaceOnUse">
      <path d="M 40 0 L 0 0 0 40" fill="none" stroke="#d6d3d1" stroke-width="0.6" />
    </pattern>
    <filter id="paper" x="0" y="0" width="100%" height="100%">
      <feTurbulence type="fractalNoise" baseFrequency="0.9" numOctaves="2" result="noise"/>
      <feColorMatrix in="noise" values="0 0 0 0 0  0 0 0 0 0  0 0 0 0 0  0 0 0 0.05 0"/>
      <feComposite in2="SourceGraphic" operator="in"/>
    </filter>
  </defs>

  <!-- Paper background -->
  <rect width="1200" height="800" fill="#f5f5f4"/>
  <rect width="1200" height="800" fill="url(#grid)" opacity="0.7"/>

  <!-- Subtle paper noise -->
  <rect width="1200" height="800" filter="url(#paper)" opacity="0.4"/>

  <!-- Outer walls (thick) -->
  <g stroke="#0c0a09" stroke-width="6" fill="none" stroke-linecap="square">
    <line x1="40" y1="40" x2="1160" y2="40"/>
    <line x1="1160" y1="40" x2="1160" y2="760"/>
    <line x1="1160" y1="760" x2="40" y2="760"/>
    <line x1="40" y1="760" x2="40" y2="40"/>
  </g>

  <!-- Interior walls (medium) -->
  <g stroke="#0c0a09" stroke-width="3.5" fill="none" stroke-linecap="square">
    <!-- Vertical wall splitting west reception/office from east areas -->
    <line x1="500" y1="40" x2="500" y2="320"/>
    <line x1="500" y1="420" x2="500" y2="760"/>

    <!-- Horizontal wall in west (Reception above, Open Office below) -->
    <line x1="40" y1="320" x2="280" y2="320"/>
    <line x1="380" y1="320" x2="500" y2="320"/>

    <!-- Conference room dividers (east, top half) -->
    <line x1="820" y1="40" x2="820" y2="380"/>
    <line x1="500" y1="380" x2="700" y2="380"/>
    <line x1="780" y1="380" x2="1160" y2="380"/>

    <!-- East lower partition -->
    <line x1="700" y1="380" x2="700" y2="760"/>
  </g>

  <!-- Doors (small arc indicators) -->
  <g stroke="#a8a29e" stroke-width="1.2" fill="none">
    <!-- Entrance from outside (south wall) -->
    <path d="M 220 760 a 50 50 0 0 0 -50 -50" />
    <line x1="170" y1="760" x2="220" y2="760" stroke="#f5f5f4" stroke-width="7"/>

    <!-- Reception → Office -->
    <path d="M 280 320 a 50 50 0 0 1 50 50" />
    <line x1="280" y1="320" x2="380" y2="320" stroke="#f5f5f4" stroke-width="5"/>

    <!-- Reception/Office → East -->
    <line x1="500" y1="320" x2="500" y2="420" stroke="#f5f5f4" stroke-width="5"/>

    <!-- Conference door -->
    <line x1="700" y1="380" x2="780" y2="380" stroke="#f5f5f4" stroke-width="5"/>
  </g>

  <!-- Room labels (italic serif for character) -->
  <g font-family="Georgia, 'Times New Roman', serif" font-style="italic" fill="#57534e" text-anchor="middle">
    <text x="270" y="190" font-size="22">Reception</text>
    <text x="270" y="212" font-size="11" fill="#a8a29e" font-style="normal" font-family="ui-monospace, monospace">11m × 5.6m</text>

    <text x="270" y="555" font-size="22">Open Office</text>
    <text x="270" y="577" font-size="11" fill="#a8a29e" font-style="normal" font-family="ui-monospace, monospace">11m × 8.8m</text>

    <text x="660" y="210" font-size="22">Conference</text>
    <text x="660" y="232" font-size="11" fill="#a8a29e" font-style="normal" font-family="ui-monospace, monospace">7m × 6.8m</text>

    <text x="990" y="210" font-size="22">Server Room</text>
    <text x="990" y="232" font-size="11" fill="#a8a29e" font-style="normal" font-family="ui-monospace, monospace">8.4m × 6.8m</text>

    <text x="600" y="570" font-size="22">Workspace</text>
    <text x="600" y="592" font-size="11" fill="#a8a29e" font-style="normal" font-family="ui-monospace, monospace">4m × 7.6m</text>

    <text x="930" y="570" font-size="22">Lounge &amp; Café</text>
    <text x="930" y="592" font-size="11" fill="#a8a29e" font-style="normal" font-family="ui-monospace, monospace">9.2m × 7.6m</text>
  </g>

  <!-- Compass + scale marker -->
  <g transform="translate(1060, 70)" fill="#a8a29e" font-family="ui-monospace, monospace" font-size="10">
    <line x1="0" y1="20" x2="0" y2="0" stroke="#57534e" stroke-width="1.4"/>
    <polygon points="0,-4 -4,2 4,2" fill="#57534e"/>
    <text x="9" y="4">N</text>
  </g>

  <g transform="translate(60, 730)" fill="#a8a29e" font-family="ui-monospace, monospace" font-size="10">
    <line x1="0" y1="0" x2="100" y2="0" stroke="#57534e" stroke-width="1.4"/>
    <line x1="0" y1="-3" x2="0" y2="3" stroke="#57534e" stroke-width="1.4"/>
    <line x1="100" y1="-3" x2="100" y2="3" stroke="#57534e" stroke-width="1.4"/>
    <text x="50" y="-7" text-anchor="middle">2 m</text>
  </g>

  <!-- Title strip -->
  <g transform="translate(60, 60)" font-family="Georgia, 'Times New Roman', serif">
    <text x="0" y="0" font-size="11" font-style="italic" fill="#a8a29e">DEMO OFFICE · GROUND FLOOR</text>
  </g>
</svg>
